<svg xmlns="http://www.w3.org/2000/svg" width="100%" viewBox="0 0 1400 266" fill="none">
  <g clip-path="url(#clip0_18245_6647)">
    <path d="M51.3959 45.474V140.595H85.2791C99.2384 129.181 106.218 112.439 106.218 90.3712C106.218 80.9859 104.315 72.108 100.507 63.7373C96.9542 55.3666 92.6395 49.2789 87.5633 45.474H51.3959ZM0 266.155V-0.184082H103.172C120.431 7.42561 134.01 19.0938 143.908 34.8205C154.061 50.5472 159.137 68.9372 159.137 89.9907C159.137 110.791 153.934 130.068 143.528 147.824C133.122 165.58 117.766 178.136 97.4618 185.492H51.3959V266.155H0Z" fill="#FFFFFF"/>
    <path d="M283.357 266.155L275.362 223.921H215.21L207.215 266.155H155.438L206.834 -0.184082H285.641L334.372 266.155H283.357ZM244.525 49.2789L229.677 137.932L221.301 183.209H268.89L260.134 137.932L245.286 49.2789H244.525Z" fill="#FFFFFF"/>
    <path d="M356.541 -0.184082H457.81C473.8 5.14271 487.378 15.0353 498.546 29.4937C509.967 43.6984 515.678 61.2007 515.678 82.0005C515.678 115.99 502.226 140.976 475.323 156.956L513.774 266.155H460.475L428.115 169.131H407.937V266.155H356.541V-0.184082ZM407.937 45.474V126.517H440.678C444.993 125.503 449.688 121.19 454.764 113.581C460.094 105.717 462.759 96.5858 462.759 86.1859C462.759 75.786 460.475 66.6544 455.906 58.791C451.592 50.9277 447.277 46.4887 442.962 45.474H407.937Z" fill="#FFFFFF"/>
    <path d="M582.482 45.474H524.995V-0.184082H691.746V45.474H634.259V266.155H582.482V45.474Z" fill="#FFFFFF"/>
    <path d="M807.484 266.155H751.901V177.502L695.556 -0.184082H747.332L770.936 80.8591L778.931 127.659H780.454L788.449 80.8591L812.053 -0.184082H863.83L807.484 177.502V266.155Z" fill="#FFFFFF"/>
    <path d="M934.404 266.155H882.247V-0.184082H934.404V107.113H995.318V-0.184082H1047.48V266.155H995.318V155.814H934.404V266.155Z" fill="#FFFFFF"/>
    <path d="M1197.58 266.155L1189.59 223.921H1129.44L1121.44 266.155H1069.66L1121.06 -0.184082H1199.87L1248.6 266.155H1197.58ZM1158.75 49.2789L1143.9 137.932L1135.53 183.209H1183.12L1174.36 137.932L1159.51 49.2789H1158.75Z" fill="#FFFFFF"/>
    <path d="M1290.74 45.474H1233.25V-0.184082H1400V45.474H1342.51V266.155H1290.74V45.474Z" fill="#FFFFFF"/>
  </g>
  <defs>
    <clipPath id="clip0_18245_6647">
      <rect width="1400" height="266" fill="white"/>
    </clipPath>
  </defs>
</svg>
