<svg width="300" height="319" viewBox="0 0 300 319" fill="none" xmlns="http://www.w3.org/2000/svg">
<path d="M121.726 218.987L107.046 259.776L99.2876 256.983L113.967 216.195L121.726 218.987ZM279.641 196.539L195.391 199.514L195.1 191.273L279.35 188.3L279.641 196.539Z" fill="#C8338E"/>
<path d="M179.03 70.953C180.658 70.4378 182.395 71.3402 182.911 72.9681C184.476 77.9107 188.106 89.4447 190.09 95.9899C191.465 100.529 191.901 106.302 191.513 111.958C191.125 117.617 189.891 123.458 187.703 128.108C185.707 132.35 181.891 135.188 178.33 137.009C174.732 138.849 170.999 139.854 168.57 140.228C166.882 140.487 165.303 139.33 165.044 137.642C164.784 135.954 165.942 134.376 167.63 134.116C169.484 133.831 172.572 133.008 175.515 131.503C178.496 129.979 180.94 127.956 182.108 125.475C183.874 121.722 184.989 116.688 185.343 111.535C185.696 106.379 185.267 101.399 184.171 97.7826C182.2 91.2783 178.58 79.7779 177.015 74.8343C176.499 73.2063 177.402 71.4685 179.03 70.953Z" fill="#CA328E"/>
<path d="M221.452 303.796C221.452 307.781 184.765 311.011 139.511 311.011C94.2557 311.011 57.5693 307.781 57.5693 303.796C57.5693 299.812 94.2557 296.581 139.511 296.581C184.765 296.581 221.452 299.812 221.452 303.796Z" fill="black"/>
<path d="M178.614 63.3438C174.73 62.8547 172.506 66.6362 171.87 68.6571C168.396 69.1794 164.967 73.8595 171.125 78.9823C178.823 85.3857 185.362 79.2324 185.835 75.6057C186.292 72.1013 184.972 71.2459 184.2 70.3604C183.951 68.2713 185.9 64.2611 178.614 63.3438Z" fill="#CA328E"/>
<path d="M39.9755 177.522C39.8364 177.696 37.3413 178.149 37.6705 185.251C37.9997 192.352 47.3363 192.55 47.3363 192.55C50.4049 192.528 56.5682 191.037 56.6734 185.251C56.7786 179.465 52.246 178.062 49.9665 178.084C49.9665 178.084 51.1486 175.355 49.5051 174.566C47.8615 173.776 40.7168 176.591 39.9755 177.522Z" fill="#CA328E"/>
<path fill-rule="evenodd" clip-rule="evenodd" d="M86.1286 26.1455C75.5453 28.9813 69.2582 39.8614 72.086 50.4468L72.3803 51.5485C53.3696 64.9654 43.7471 89.2677 50.1013 113.053L74.2174 203.328C68.7071 208.915 66.2166 217.192 68.3874 225.318C70.1978 232.095 77.1581 236.117 83.9336 234.301L191.561 205.463C198.336 203.647 202.361 196.682 200.551 189.905C198.389 181.813 192.148 175.903 184.631 173.795L160.502 83.4717C154.165 59.7508 133.805 43.5313 110.723 41.343L110.412 40.1775C107.584 29.5921 96.7119 23.3098 86.1286 26.1455Z" fill="#FD6FC4"/>
<path d="M86.0547 26.2072C96.6379 23.3716 107.509 29.6544 110.337 40.2397L110.557 41.0624C134.067 42.854 154.946 59.2022 161.378 83.2793L185.367 173.078C193.363 174.903 200.105 180.986 202.369 189.464C204.18 196.24 200.155 203.206 193.379 205.021L85.7521 233.86C85.6995 233.874 85.6467 233.887 85.5941 233.9L180.849 208.377C187.624 206.561 191.649 199.595 189.838 192.818C187.574 184.343 180.836 178.262 172.843 176.435L148.853 86.6343C142.422 62.5593 121.546 46.2118 98.0384 44.4177L97.8176 43.5912C95.5758 35.1992 88.278 29.513 80.0766 28.9293C81.8566 27.7266 83.8636 26.7943 86.0547 26.2072Z" fill="#D83D9B"/>
<path fill-rule="evenodd" clip-rule="evenodd" d="M105.191 145.367C116.833 142.747 124.057 130.787 121.327 118.652C120.745 116.065 119.758 113.679 118.451 111.551L80.9179 112.912C78.7032 117.422 77.9599 122.762 79.169 128.136C81.899 140.271 93.5496 147.986 105.191 145.367Z" fill="white"/>
<path d="M120.824 118.765C120.277 116.338 119.366 114.092 118.166 112.077L81.2479 113.416C79.1878 117.763 78.5136 122.875 79.6719 128.024C82.344 139.901 93.7337 147.416 105.078 144.864C116.423 142.312 123.496 130.643 120.824 118.765ZM121.829 118.539C124.617 130.932 117.243 143.184 105.304 145.869C93.3657 148.555 81.4544 140.642 78.6663 128.25C77.4309 122.759 78.1897 117.298 80.4552 112.685L80.591 112.408L80.8991 112.398L118.733 111.025L118.89 111.282C120.226 113.457 121.235 115.897 121.829 118.539Z" fill="black"/>
<path fill-rule="evenodd" clip-rule="evenodd" d="M148.523 132.709C136.881 135.329 125.231 127.614 122.501 115.479C122.178 114.047 121.995 112.616 121.941 111.204L155.168 91.9666C159.789 95.0912 163.311 100.004 164.658 105.995C167.388 118.13 160.164 130.09 148.523 132.709Z" fill="white"/>
<path d="M165.161 105.881C163.784 99.7603 160.184 94.7361 155.456 91.5394L155.189 91.3592L154.909 91.5201L121.682 110.757L121.414 110.913L121.426 111.223C121.481 112.667 121.669 114.129 121.998 115.593C124.786 127.985 136.698 135.898 148.636 133.212C160.575 130.526 167.949 118.274 165.161 105.881ZM164.155 106.107C166.827 117.984 159.754 129.654 148.41 132.207C137.066 134.759 125.676 127.243 123.004 115.366C122.712 114.068 122.538 112.773 122.471 111.491L155.144 92.5764C159.527 95.6358 162.863 100.363 164.155 106.107Z" fill="black"/>
<path d="M120.037 125.686C120.037 131.655 115.545 136.494 110.003 136.494C104.461 136.494 99.9683 131.655 99.9683 125.686C99.9683 119.716 104.461 114.877 110.003 114.877C115.545 114.877 120.037 119.716 120.037 125.686Z" fill="black"/>
<path d="M154.008 112.598C154.988 118.487 151.926 123.902 147.17 124.693C142.414 125.485 137.764 121.352 136.784 115.464C135.804 109.575 138.866 104.16 143.622 103.369C148.378 102.577 153.028 106.71 154.008 112.598Z" fill="black"/>
<path d="M147.481 152.01C149.726 161.503 145.025 170.741 136.98 172.644C128.936 174.546 120.595 168.392 118.35 158.898C116.105 149.405 120.807 140.167 128.851 138.265C136.895 136.363 145.236 142.517 147.481 152.01Z" fill="black"/>
<path d="M132.663 152.488C127.387 152.224 122.8 157.045 121.16 159.577C122.245 162.592 125.284 169.633 133.025 170.285C140.015 170.873 143.66 164.618 144.672 160.952C142.864 158.299 139.97 152.854 132.663 152.488Z" fill="#AD3733"/>
<path d="M70.4876 153.358C72.1951 153.365 73.5734 154.755 73.5666 156.462C73.5597 158.17 72.1701 159.549 70.4624 159.542C60.2324 159.502 44.9372 160.243 32.1451 162.558C25.7242 163.72 20.1357 165.244 16.1661 167.156C11.996 169.165 10.6486 171.076 10.5334 172.515C10.4555 173.489 10.8925 174.668 12.5818 176.077C14.2832 177.496 16.8863 178.804 20.0806 179.881C26.4675 182.032 34.2668 182.947 39.3278 182.532C41.0297 182.392 42.5226 183.659 42.6625 185.36C42.8022 187.062 41.5361 188.555 39.8341 188.695C33.8557 189.186 25.2131 188.135 18.1067 185.741C14.5545 184.544 11.1482 182.934 8.62099 180.827C6.08168 178.709 4.07059 175.753 4.36932 172.021C4.76812 167.042 8.97073 163.757 13.4826 161.584C18.1951 159.314 24.4214 157.671 31.0429 156.472C44.3361 154.067 60.0393 153.317 70.4876 153.358Z" fill="#CA328E"/>
<path d="M107.068 253.96C104.395 253.418 96.0921 256.618 96.0509 259.243C96.0063 262.081 109.723 274.532 113.119 274.821C117.364 275.182 118.518 272.383 118.583 268.003C118.673 261.907 110.41 254.638 107.068 253.96Z" fill="#C8338E"/>
<path d="M269.298 191.385C270.927 193.983 280.136 198.021 282.399 195.888C284.845 193.581 284.701 172.267 282.292 169.297C279.281 165.584 276.001 166.966 272.229 170.53C266.979 175.49 267.262 188.138 269.298 191.385Z" fill="#C8338E"/>
</svg>
