<svg xmlns="http://www.w3.org/2000/svg" width="100%" viewBox="0 0 23 51" fill="none" class="party_character_svg character_animate"><path d="M9.8119 47.5877L8.43801 47.8449L7.10889 40.7518L8.48278 40.4946L9.8119 47.5877Z" fill="#C8338E"></path><path d="M15.0687 47.2834L13.6746 47.3839L13.2017 40.8314L14.5958 40.731L15.0687 47.2834Z" fill="#C8338E"></path><path fill-rule="evenodd" clip-rule="evenodd" d="M11.2971 7.13331C9.48195 7.13008 8.01315 8.59894 8.01646 10.4141L8.01697 10.6959C4.40301 12.0214 1.83014 15.4931 1.83757 19.5718L1.86728 35.8878C0.745025 36.5725 -0.00256665 37.8091 6.62215e-06 39.2222C0.00219063 40.4216 0.976222 41.3956 2.17557 41.3977L20.4998 41.4303C21.6992 41.4324 22.6697 40.4619 22.6675 39.2625C22.6649 37.8553 21.9191 36.6205 20.8022 35.9302L20.7725 19.6054C20.7651 15.5378 18.1936 12.0648 14.5903 10.7185L14.5897 10.4258C14.5864 8.61062 13.1123 7.13653 11.2971 7.13331Z" fill="#FD6FC4"></path><path d="M11.3049 7.13379C13.1201 7.13703 14.5941 8.61113 14.5974 10.4263L14.598 10.6603C18.2866 11.9615 20.936 15.4777 20.9435 19.6064L20.973 35.8374C22.1789 36.5054 22.997 37.7902 22.9997 39.2642C23.0019 40.4635 22.0315 41.4342 20.8321 41.4321L2.50786 41.3993C2.50002 41.3993 2.4922 41.3986 2.48437 41.3985L18.5662 41.4274C19.7655 41.4295 20.736 40.4588 20.7338 39.2595C20.7311 37.7859 19.9131 36.5012 18.7077 35.833L18.6782 19.6021C18.6707 15.4737 16.0218 11.9577 12.3337 10.6562L12.3335 10.4216C12.3309 9.00452 11.4317 7.79519 10.1738 7.33147C10.5263 7.20276 10.9074 7.13309 11.3049 7.13379Z" fill="#D83D9B"></path><path d="M11.0876 22.3439C11.0876 24.4793 9.38548 26.2103 7.28576 26.2103C5.18604 26.2103 3.48389 24.4793 3.48389 22.3439C3.48389 20.2086 5.18604 18.4775 7.28576 18.4775C9.38548 18.4775 11.0876 20.2086 11.0876 22.3439Z" fill="#fff"></path><path d="M10.9807 22.3443C10.9807 20.2627 9.32252 18.5827 7.2863 18.5827C5.25008 18.5827 3.59188 20.2627 3.59188 22.3443C3.59191 24.4259 5.2501 26.1059 7.2863 26.1059C9.32251 26.1059 10.9807 24.4259 10.9807 22.3443ZM11.1957 22.3443C11.1956 24.5334 9.4495 26.3154 7.2863 26.3154C5.1231 26.3154 3.37697 24.5334 3.37695 22.3443C3.37695 20.1552 5.12309 18.373 7.2863 18.373C9.44952 18.3731 11.1957 20.1552 11.1957 22.3443Z" fill="#000"></path><path d="M7.98268 18.9395C8.96907 18.9395 9.76885 19.7525 9.76885 20.7557C9.76885 21.7588 8.96907 22.5719 7.98268 22.5719C6.99634 22.5718 6.19678 21.7587 6.19678 20.7557C6.19678 19.7526 6.99635 18.9395 7.98268 18.9395Z" fill="#000000"></path><path d="M9.47398 20.7557C9.47397 19.9107 8.80165 19.2343 7.98268 19.2343C7.1638 19.2344 6.49166 19.9107 6.49165 20.7557C6.49165 21.6006 7.16379 22.2769 7.98268 22.277V22.5719C6.99634 22.5718 6.19678 21.7587 6.19678 20.7557C6.19678 19.7526 6.99635 18.9395 7.98268 18.9395C8.96907 18.9395 9.76885 19.7525 9.76885 20.7557C9.76885 21.7588 8.96907 22.5719 7.98268 22.5719V22.277C8.80165 22.277 9.47398 21.6006 9.47398 20.7557Z" fill="#000000"></path><path d="M11.593 22.3444C11.593 24.4798 13.2952 26.2108 15.3949 26.2108C17.4946 26.2108 19.1968 24.4798 19.1968 22.3444C19.1968 20.2091 17.4946 18.478 15.3949 18.478C13.2952 18.478 11.593 20.2091 11.593 22.3444Z" fill="#fff"></path><path d="M11.6999 22.3443C11.6999 20.2627 13.3581 18.5827 15.3944 18.5827C17.4306 18.5827 19.0888 20.2627 19.0888 22.3443C19.0888 24.4259 17.4306 26.1059 15.3944 26.1059C13.3582 26.1059 11.7 24.4259 11.6999 22.3443ZM11.485 22.3443C11.485 24.5334 13.2312 26.3154 15.3944 26.3154C17.5576 26.3154 19.3037 24.5334 19.3037 22.3443C19.3037 20.1552 17.5576 18.373 15.3944 18.373C13.2311 18.3731 11.485 20.1552 11.485 22.3443Z" fill="#000000"></path><path d="M14.628 18.9395C13.6417 18.9395 12.842 19.7526 12.842 20.7557C12.842 21.7589 13.6417 22.572 14.628 22.572C15.6144 22.572 16.4141 21.7589 16.4141 20.7557C16.4141 19.7526 15.6144 18.9395 14.628 18.9395Z" fill="#000000"></path><path d="M12.1741 28.6124C12.1741 29.0764 11.798 29.4524 11.3341 29.4524C10.8702 29.4524 10.4941 29.0764 10.4941 28.6124C10.4941 28.1485 10.8702 27.7725 11.3341 27.7725C11.798 27.7725 12.1741 28.1485 12.1741 28.6124Z" fill="#AD3636"></path><path d="M11.7547 28.6126C11.7547 28.3803 11.5665 28.1919 11.3343 28.1918C11.102 28.1918 10.9135 28.3803 10.9135 28.6126C10.9136 28.8448 11.102 29.033 11.3343 29.033V29.4524L11.2908 29.4513C10.8614 29.4295 10.517 29.0852 10.4952 28.6557L10.4941 28.6126C10.4941 28.1487 10.8704 27.7725 11.3343 27.7725L11.3774 27.7736C11.8212 27.7961 12.1741 28.1632 12.1741 28.6126L12.173 28.6557C12.1505 29.0995 11.7836 29.4524 11.3343 29.4524V29.033C11.5664 29.033 11.7547 28.8448 11.7547 28.6126Z" fill="#000"></path><path d="M15.2462 2.34399C15.5425 2.25719 15.8531 2.42693 15.94 2.72323C17.059 6.54374 19.3659 14.4409 19.6133 15.3744C19.8663 16.3287 21.0653 23.0292 21.6275 26.2236C21.681 26.5278 21.4778 26.8177 21.1737 26.8713C20.8696 26.9248 20.5796 26.7216 20.5261 26.4175C19.9563 23.1801 18.7694 16.5552 18.5324 15.6611C18.2899 14.7463 15.99 6.87206 14.8669 3.03776C14.7801 2.74143 14.9499 2.43084 15.2462 2.34399Z" fill="#C8338E"></path><path d="M7.4296 2.20873C7.13327 2.12194 6.82268 2.29168 6.73583 2.58797C5.61679 6.40853 3.27026 14.4414 3.02287 15.3746C2.76981 16.3294 1.61005 22.8964 1.0483 26.0884C0.994777 26.3925 1.19794 26.6825 1.50208 26.736C1.80621 26.7895 2.09619 26.5864 2.14971 26.2822C2.71986 23.0425 3.86719 16.5546 4.10408 15.661C4.34669 14.7458 6.6858 6.73673 7.80884 2.90251C7.89564 2.60618 7.7259 2.29559 7.4296 2.20873Z" fill="#C8338E"></path><path d="M13.7959 2.62625C14.361 3.18222 15.3054 3.24716 15.5935 3.09737C15.9456 2.91431 16.0791 2.27174 16.0523 1.85557C16.0126 1.23981 15.2505 0.367185 14.9406 0.206016C14.6306 0.0448466 14.0476 0.181051 13.6918 0.393247C13.2508 0.656339 13.0266 1.23098 13.0494 1.49502C13.1005 2.08338 13.3936 2.2305 13.7959 2.62625Z" fill="#C8338E"></path><path d="M8.88041 2.491C8.3153 3.04696 7.37086 3.11191 7.08277 2.96212C6.73069 2.77905 6.59714 2.13648 6.62399 1.72032C6.66371 1.10455 7.42575 0.231932 7.73569 0.0707621C8.04563 -0.0904073 8.62872 0.0457968 8.98445 0.257993C9.42552 0.521085 9.64972 1.09572 9.62682 1.35977C9.57581 1.94813 9.28268 2.09524 8.88041 2.491Z" fill="#C8338E"></path><path d="M14.4526 50.3739C14.1656 50.3428 13.7833 49.0551 13.628 48.4151C13.4988 48.0046 13.2734 47.0692 13.4053 46.6115C13.5701 46.0394 15.4416 46.2334 15.8198 48.26C16.1979 50.2866 14.8113 50.4127 14.4526 50.3739Z" fill="#C8338E"></path><path d="M9.93585 49.9462C10.2004 49.8307 10.1801 48.4876 10.1369 47.8305C10.1374 47.4001 10.0727 46.4401 9.81003 46.0428C9.48163 45.5462 7.75381 46.291 7.99904 48.3379C8.24426 50.3849 9.60514 50.0905 9.93585 49.9462Z" fill="#C8338E"></path></svg>